<svg id="visual" viewBox="0 0 960 200" width="960" height="200" xmlns="http://www.w3.org/2000/svg" xmlns:xlink="http://www.w3.org/1999/xlink" version="1.1"><rect x="0" y="0" width="960" height="200" fill="#373737"></rect><path d="M0 71L22.8 68C45.7 65 91.3 59 137 57.3C182.7 55.7 228.3 58.3 274 65.2C319.7 72 365.3 83 411.2 86C457 89 503 84 548.8 75.7C594.7 67.3 640.3 55.7 686 49.2C731.7 42.7 777.3 41.3 823 50.2C868.7 59 914.3 78 937.2 87.5L960 97L960 0L937.2 0C914.3 0 868.7 0 823 0C777.3 0 731.7 0 686 0C640.3 0 594.7 0 548.8 0C503 0 457 0 411.2 0C365.3 0 319.7 0 274 0C228.3 0 182.7 0 137 0C91.3 0 45.7 0 22.8 0L0 0Z" fill="#ECC30B" stroke-linecap="round" stroke-linejoin="miter"></path></svg>