<svg id="visual" viewBox="0 0 960 200" width="960" height="200" xmlns="http://www.w3.org/2000/svg" xmlns:xlink="http://www.w3.org/1999/xlink" version="1.1"><rect x="0" y="0" width="960" height="200" fill="#373737"></rect><path d="M0 125L22.8 124C45.7 123 91.3 121 137 123.5C182.7 126 228.3 133 274 134C319.7 135 365.3 130 411.2 124.2C457 118.3 503 111.7 548.8 107.5C594.7 103.3 640.3 101.7 686 102.2C731.7 102.7 777.3 105.3 823 112.8C868.7 120.3 914.3 132.7 937.2 138.8L960 145L960 201L937.2 201C914.3 201 868.7 201 823 201C777.3 201 731.7 201 686 201C640.3 201 594.7 201 548.8 201C503 201 457 201 411.2 201C365.3 201 319.7 201 274 201C228.3 201 182.7 201 137 201C91.3 201 45.7 201 22.8 201L0 201Z" fill="#ECC30B" stroke-linecap="round" stroke-linejoin="miter"></path></svg>